<svg xmlns="http://www.w3.org/2000/svg" viewBox="0 0 64 64" id="gym"><path d="M63.353,34.576V29.539a1,1,0,0,0-1-1H59.43v-3.8a1,1,0,0,0-1-1h-.844a26.367,26.367,0,0,0-50.052,0H6.7a1,1,0,0,0-1,1v3.8H2.779a1,1,0,0,0-1,1v5.037a1,1,0,0,0,1,1H5.7v3.8a1,1,0,0,0,1,1h.843a26.359,26.359,0,0,0,50.042,0h.843a1,1,0,0,0,1-1v-3.8h2.923A1,1,0,0,0,63.353,34.576ZM7.7,38.371V25.744h5.361V38.371Zm7.361,1v-16h5.363V40.745H15.063Zm7.363-8.832H42.705v3.037H22.426Zm21.279-9.168a1,1,0,0,0-1,1v6.168H22.426V22.371a1,1,0,0,0-1-1H17.9a18.131,18.131,0,0,1,29.33,0ZM21.426,42.745a1,1,0,0,0,1-1V35.576H42.705v6.169a1,1,0,0,0,1,1h3.526a18.132,18.132,0,0,1-29.331,0Zm23.279-2V23.371h5.362V40.745Zm7.362-15H57.43V38.371H52.067ZM32.565,7.679A24.539,24.539,0,0,1,55.471,23.744h-3.4V22.371a1,1,0,0,0-1-1H49.644a20.137,20.137,0,0,0-34.158,0H14.063a1,1,0,0,0-1,1v1.373h-3.4A24.283,24.283,0,0,1,32.565,7.679ZM3.779,33.576V30.539H5.7v3.037ZM32.565,56.438A24.545,24.545,0,0,1,9.66,40.371h3.4v1.374a1,1,0,0,0,1,1h1.424a20.137,20.137,0,0,0,34.158,0h1.422a1,1,0,0,0,1-1V40.371h3.4A24.538,24.538,0,0,1,32.565,56.438ZM61.353,33.576H59.43V30.539h1.923Z"></path></svg>