<svg xmlns="http://www.w3.org/2000/svg" width="100" height="100" viewBox="0 0 100 100" id="yoga"><path fill-rule="evenodd" d="M90.258 27.913c-.535-.787-1.089-1.602-1.762-2.334-1.517-1.656-3.027-3.317-4.538-4.979l-2.375-2.612c-.399-.438-.628-.878-.72-1.384-.14-.768-.346-1.634-1.049-2.182-.754-.586-1.065-1.409-.981-2.587.132-1.848.391-3.353 1.227-4.687l.09-.138c.206-.297.587-.852.19-1.465-.31-.482-.885-.601-1.519-.524-.076.009-.151.019-.225.023-.505.032-.916.26-1.297.471-1.233.685-2.071 1.692-2.489 2.995-.438 1.364-.963 2.396-1.65 3.245-.459.567-.912 1.244-.79 1.965.123.729.78 1.227 1.472 1.656.561.346.618.48.623.501 0 .024-.024.174-.511.671-.114.116-.23.234-.362.326l-.229.158c-1.92 1.333-3.905 2.711-6.043 3.733-.309.148-.625.286-.941.424-1.109.485-2.257.987-3.148 1.906-1.204 1.238-2.607 2.13-4.094 3.076l-.684.436c-1.396.898-2.811 1.486-4.319 1.795-1.505.309-2.715.861-3.697 1.688-1.037.875-2.175 1.669-3.275 2.438l-.896.628c-.141.1-.29.199-.434.261l.06-.207c.152-.533.283-.993.699-1.217a2 2 0 0 0 1.019-1.376 2.375 2.375 0 0 0-.454-1.925l-.116-.148c-.695-.893-1.114-1.432-1.875-1.432-.3 0-.628.087-1.099.29a5.109 5.109 0 0 0-.279.133c-.138.069-.309.155-.39.155-.029 0-.085-.065-.096-.079-.628-.757-1.504-1.094-2.356-1.345-1.915-.565-3.657-.23-4.971.964-.73.664-1.417 1.492-2.162 2.605-.298.443-.608 1.055-.365 1.851.16.521.353 1.037.546 1.554.374.998.727 1.939.855 2.942.056.434.479.507.889.578.069.011.133.021.102.002.379.206.534.503.748.915.139.268.297.572.54.868.318.387.741.596 1.225.607-1.07.302-2.061.701-2.953 1.091a5.166 5.166 0 0 1-1.964.438l-.898.023c-.581.017-1.163.034-1.744.034-1.194 0-2.107-.073-2.962-.237-1.261-.24-2.576-.194-4.139.153l-.348.078c-.6.134-1.199.269-1.803.376-2.092.374-4.279.48-6.573.347l-.171-.005c-.308 0-.592.044-.867.087l-.325.048c-.843.106-1.688.255-2.536.404-1.555.273-3.163.556-4.737.556-.15 0-.3-.002-.491-.01l-.117-.004c-.478 0-.708.325-.725.646-.02.354.194.758.545.891 1.415 1.115 3.104 1.167 4.739 1.218.491.015.98.03 1.458.075.729.07 1.384-.07 1.899-.426.655-.453 1.415-.585 2.437-.413 2.531.423 5.034.482 7.362.482.652 0 1.304-.005 1.957-.01l1.32-.011c.356-.004.714-.008 1.071-.008.89 0 1.567.027 2.263.092 1.919.18 3.904.365 5.868.365 1.806 0 3.413-.158 4.912-.482 1.812-.392 3.254.158 4.257 1.644 1.357 2.01 3.327 2.896 5.621 2.528 1.098-.177 2.2-.048 3.41.402.645.24 1.497.456 2.24.273.748-.186 1.564-.277 2.497-.277.905 0 1.837.085 2.738.166.907.082 1.845.167 2.779.17.37.001.59.101.683.624.237 1.322.431 2.514.404 3.725a36.61 36.61 0 0 0 .439 6.37c.474 3.039.623 5.371.482 7.562-.066 1.038.048 1.935.351 2.738.165.44.188.955.066 1.577-.492 2.547-.695 5.151-.89 7.671-.077.979-.152 1.957-.245 2.934-.059.623-.076 1.16-.093 1.653-.042 1.243-.073 2.141-.752 3.502-.423.847-.771 1.19-1.258 1.537-.448.249-.807.475-1.122.672-.608.382-1.012.636-1.672.779a42.65 42.65 0 0 1-2.355.844c-.763.239-1.308.744-1.424 1.319-.056.279-.056.827.573 1.357.237.199.62.28 1.324.28 1.245 0 3.264-.265 5.072-.523.424-.062.908.049 1.441.161.668.143 1.383.29 2.07.168 2.162-.375 2.162-1.868 2.162-2.76 0-.832-.24-1.634-.34-1.927.333-3.47 1.093-6.673 2.198-9.271 1.082-2.542 1.458-5.316 1.15-8.482-.133-1.356-.081-2.482.163-3.541.068-.3.104-.606.14-.914l.021-.178c.104-.865.181-1.731.257-2.599.129-1.463.263-2.975.533-4.441.662-3.596 1.012-6.366 1.133-8.98.055-1.156.188-2.335.318-3.477.049-.419.096-.839.14-1.258.076-.714.157-1.206.59-1.521 1.05-.763 2.023-1.628 2.965-2.466a68.256 68.256 0 0 1 1.605-1.397c3.744-3.125 6.791-5.866 9.487-9.088 1.296-1.548 1.389-2.948.27-4.593zM40.619 43.969c-1.428.309-2.964.459-4.698.459-1.917 0-3.877-.183-5.841-.367a24.074 24.074 0 0 0-2.29-.09c-.361 0-.722.004-1.082.008l-1.317.011c-.649.005-1.299.01-1.948.01-2.284 0-4.737-.057-7.196-.468-1.295-.215-2.297-.028-3.174.577-.32.22-.746.298-1.231.254-.5-.048-1.011-.064-1.524-.081-1.367-.042-2.668-.083-3.752-.73 1.584-.025 3.157-.302 4.68-.569.831-.146 1.66-.292 2.488-.397.119-.015.236-.033.354-.052.235-.037.469-.075.711-.075l.114.003c2.375.136 4.637.027 6.808-.36.618-.11 1.232-.248 1.846-.385l.346-.077c1.434-.32 2.6-.363 3.732-.147.919.176 1.891.254 3.15.254.59 0 1.182-.018 1.773-.034l.89-.023a6.172 6.172 0 0 0 2.346-.522c1.522-.665 3.344-1.361 5.352-1.49.269-.017.604-.038.899-.189a1.18 1.18 0 0 0 .247-.183c.721 1.254 1.431 3.808 1.743 5.02-.986-.507-2.135-.638-3.426-.357zm-1.186-5.076l.035-.018.322-.164c.371-.192.639-.331 1.062-.402.081-.013.161-.02.239-.02.339 0 .526.117.544.128.009.148-.021.164-.042.175-.107.055-.326.069-.546.083-.552.035-1.091.112-1.614.218zm6.887.311c-1.196 1.024-3.051.062-3.736-.358.042-.139.068-.297.056-.492-.046-.727-.919-1.208-1.953-1.038-.58.097-.958.293-1.359.501l-.304.154c-.5.246-.861.249-1.119-.064-.176-.214-.296-.446-.424-.692-.239-.46-.51-.982-1.161-1.336-.105-.057-.22-.077-.411-.109l-.106-.017c-.169-1.004-.523-1.948-.866-2.864-.064-.171-.118-.342-.18-.512.502-.617 1.489-1.61 2.734-1.683 1.809-.106 2.66 2.283 2.66 2.283s.006-1.863.644-1.964c.639-.101 1.133.106 1.521.745s.84 2.234 1.571 2.34c.331.048.653-.1.91-.274a.843.843 0 0 0 .143.334c.237.32.674.412 1.183.229l.023-.011c.432 1.087 1.355 3.815.174 4.828zm16.595 5a52.351 52.351 0 0 0-.146 4.573 84.68 84.68 0 0 1-1.083-.09c-.923-.083-1.878-.17-2.829-.17-1.015 0-1.911.101-2.74.306-.504.127-1.11-.04-1.647-.24-1.021-.379-1.984-.555-2.934-.538.058-.765.386-2.384 1.934-4.692a394.51 394.51 0 0 0 3.829-5.828c.961.936 1.957 1.901 3.188 2.623.683.4 1.313.595 1.931.595.106 0 .211-.016.314-.028.142.6.321 1.753.183 3.489zm10.965 7.461c-.12 2.567-.465 5.295-1.12 8.845-.277 1.514-.413 3.05-.544 4.535-.076.857-.151 1.713-.254 2.568l-.021.184c-.03.269-.06.539-.121.801-.268 1.169-.327 2.396-.185 3.865.292 2.994-.059 5.608-1.073 7.991-1.157 2.72-1.948 6.068-2.285 9.681l-.011.116.042.109c.003.008.315.844.315 1.686 0 .982-.062 1.548-1.329 1.77-.526.091-1.11-.039-1.689-.161-.597-.127-1.229-.255-1.791-.174-1.774.253-3.748.513-4.931.513-.475 0-.649-.045-.673-.045-.002 0-.003.001-.002.002-.101-.085-.26-.245-.23-.386.033-.169.304-.42.737-.556a33.967 33.967 0 0 0 2.34-.845c.756-.156 1.271-.479 1.922-.889.302-.189.646-.405 1.12-.672.641-.45 1.111-.911 1.625-1.938.777-1.559.812-2.6.856-3.918.016-.476.034-.992.091-1.593.092-.982.169-1.967.245-2.95.193-2.491.393-5.067.875-7.558.156-.81.12-1.503-.113-2.122-.254-.677-.346-1.414-.287-2.319.145-2.269-.007-4.668-.493-7.783a35.377 35.377 0 0 1-.427-6.193 13.497 13.497 0 0 0-.104-1.897c.543-.457 1.673-1.158 3.89-1.745 2.119-.561 3.219-.755 3.771-.82-.064.63-.117 1.264-.146 1.898zm2.079-15.925c-.865.684-1.62 1.015-2.438 1.07l-.686-.108a41.82 41.82 0 0 1-1.633-.274c-1.915-.375-3.678.044-5.24 1.24-.426.327-.866.636-1.307.945a66.86 66.86 0 0 0-.862.613c-.926.672-1.726.683-2.798.055-1.14-.669-2.057-1.562-3.029-2.508-.496-.483-1.009-.983-1.551-1.446-.147-.125-.271-.337-.401-.561l-.102-.17c-.075-.125-.084-.2-.077-.222.006-.022.048-.076.168-.137 1.874-.959 3.448-2.319 4.971-3.633.752-.65 1.53-1.322 2.327-1.929 1.529-1.164 2.814-2.12 4.262-2.938 1.306-.738 2.449-1.698 3.555-2.625.636-.534 1.294-1.086 1.966-1.581.48-.352.957-.708 1.412-1.087.669-.556 1.521-.577 2.458-.6l.014-.504v.503c.218 0 .34.147.571.563.224.4.452.797.683 1.194.537.929 1.094 1.889 1.54 2.866.903 1.973 2.243 3.568 4.099 4.876.274.193.409.306.473.372a3.524 3.524 0 0 1-.399.382c-.526.453-1.044.884-1.598 1.173-2.159 1.127-4.064 2.637-5.906 4.097l-.472.374zm13.258-3.881c-2.612 3.123-6.356 6.363-9.991 9.401-.349-.358-.835-1.062-1.496-2.618-.466-1.099-.476-2.136-.686-2.556 1.682-1.33 3.836-2.922 5.759-3.925.648-.339 1.215-.809 1.787-1.303.458-.394.806-.732.783-1.195-.022-.467-.419-.781-.933-1.144-1.706-1.203-2.938-2.665-3.763-4.472-.468-1.021-1.036-2.002-1.586-2.952a85.568 85.568 0 0 1-.674-1.18c-.225-.404-.603-1.08-1.45-1.08l-.076.001c-.984.024-2.101.052-3.04.832-.439.367-.9.71-1.362 1.05-.699.514-1.369 1.077-2.018 1.621-1.071.899-2.179 1.829-3.404 2.521-1.501.849-2.814 1.824-4.375 3.012-.821.625-1.611 1.308-2.376 1.968-1.478 1.276-3.005 2.595-4.771 3.5-.449.229-.617.54-.68.759a1.025 1.025 0 0 0-.034.194c-.522.281-1.531.655-3.194.655-1.931 0-3.564-.838-4.32-1.299l.418-.294c1.119-.781 2.276-1.59 3.348-2.494.851-.717 1.914-1.198 3.251-1.473 1.634-.334 3.158-.967 4.661-1.935l.68-.433c1.47-.935 2.989-1.9 4.274-3.224.755-.778 1.764-1.218 2.831-1.685.327-.143.654-.286.973-.438 2.211-1.057 4.229-2.459 6.183-3.815l.229-.159a3.59 3.59 0 0 0 .507-.448c.533-.545.853-.986.791-1.496-.068-.56-.6-.932-1.092-1.237-.646-.4-.967-.708-1.012-.968-.041-.249.148-.63.581-1.164.769-.95 1.35-2.084 1.827-3.571.342-1.065 1.002-1.858 2.038-2.432.296-.164.576-.319.855-.336.091-.006.186-.018.279-.029.106-.013.215-.027.319-.027.172 0 .199.042.245.116.002.06-.119.235-.184.33l-.116.173c-.946 1.511-1.234 3.151-1.378 5.15-.106 1.523.34 2.652 1.367 3.453.423.33.566.955.678 1.568.125.689.44 1.305.966 1.882l2.374 2.611c1.512 1.663 3.023 3.326 4.543 4.983.623.679 1.154 1.462 1.707 2.274.832 1.22.767 2.122-.243 3.328z" clip-rule="evenodd"></path></svg>